#tb 0: 1/12
0,          0,          0,        1,    38400, 0x45311080
0,          1,          1,        1,    38400, 0x9474f731
0,          2,          2,        1,    38400, 0x429ebb12
0,          3,          3,        1,    38400, 0x472c199a
0,          4,          4,        1,    38400, 0xefd49dae
0,          5,          5,        1,    38400, 0x78627fa9
0,          6,          6,        1,    38400, 0x2a8d9148
0,          7,          7,        1,    38400, 0x21cc6738
0,          8,          8,        1,    38400, 0x0bc4703f
0,          9,          9,        1,    38400, 0x1ddcc035
